<svg width="48" height="48" viewBox="0 0 48 48" fill="none" xmlns="http://www.w3.org/2000/svg">
<path fill-rule="evenodd" clip-rule="evenodd" d="M26.8551 1.09082L22.1833 1.09091L22.1419 11.0008L26.8312 10.9918L26.8551 1.09082ZM11.7224 20.9801L1.58258 20.953L1.55469 25.8442L9.26125 25.8363C8.0022 30.335 8.44401 34.7361 10.7278 38.8761C13.5148 43.9287 19.3107 47.1092 25.0169 46.8994C35.8853 46.4171 42.5548 36.074 39.6652 25.8132L47.3729 25.8138L47.3545 20.9834L37.2207 20.9473C34.33 16.7019 29.0389 14.2224 23.9787 14.373C19.5134 14.5672 14.2097 16.8672 11.7224 20.9801ZM15.2195 24.5103C17.3538 21.1808 20.6016 19.4679 24.4434 19.3557C28.6155 19.2333 32.7045 21.9795 34.4444 25.767C36.5255 30.2979 35.4273 37.7614 30.5501 40.051C28.8411 38.297 27.0979 37.0107 24.5221 36.9296C22.1384 36.977 19.7196 38.0989 18.2988 40.069C13.3831 36.4175 11.8234 29.8093 15.2195 24.5103Z" fill="#D51F36"/>
<path d="M42.4094 9.61554L38.401 6.35272L32.5117 13.8372L36.6489 17.1258L42.4094 9.61554Z" fill="#D51F36"/>
<path d="M5.96196 9.61554L9.9703 6.35272L15.8596 13.8372L11.7224 17.1258L5.96196 9.61554Z" fill="#D51F36"/>
</svg>
